<svg xmlns="http://www.w3.org/2000/svg" viewBox="0 0 32 32">
  <!-- Gradient definition -->
  <defs>
    <linearGradient id="grad" x1="0%" y1="0%" x2="100%" y2="100%">
      <stop offset="0%" style="stop-color:#4F46E5;stop-opacity:1" />
      <stop offset="100%" style="stop-color:#7C3AED;stop-opacity:1" />
    </linearGradient>
  </defs>
  
  <!-- Rounded square background with gradient -->
  <rect x="2" y="2" width="28" height="28" rx="6" fill="url(#grad)"/>
  
  <!-- Letter E (Easy) -->
  <path d="M 9 10 L 9 22 L 15 22 L 15 18.5 L 12 18.5 L 12 16.5 L 15 16.5 L 15 13 L 12 13 L 12 11 L 15 11 L 15 10 Z" fill="white"/>
  
  <!-- Letter G (Generator) with modern style -->
  <path d="M 18 10 L 18 14 L 21 14 L 21 16 L 18 16 L 18 20 L 24 20 L 24 22 L 18 22 L 18 10 Z" fill="white"/>
  <path d="M 20 16 L 22 16 L 22 18 L 20 18 Z" fill="url(#grad)"/>
</svg>
